<svg xmlns="http://www.w3.org/2000/svg" width="400" height="520" viewBox="0 0 400 520" role="img" aria-label="Ilustración de los músculos del cuerpo humano">
  <rect width="400" height="520" fill="#f7fbff"/>
  <text x="200" y="40" text-anchor="middle" font-family="Arial, sans-serif" font-size="24" font-weight="700" fill="#2c3e50">Músculos del cuerpo humano</text>

  <circle cx="200" cy="90" r="35" fill="#f4d2b7"/>
  <path d="M170 112 C170 148 230 148 230 112" fill="none" stroke="#8b5a3c" stroke-width="4" stroke-linecap="round"/>

  <path d="M175 122 C165 165 160 245 150 320 C145 370 145 410 165 445 L235 445 C255 410 255 370 250 320 C240 245 235 165 225 122 Z" fill="#e74c3c" opacity="0.9"/>
  <path d="M170 142 C175 180 176 230 170 285" stroke="#c0392b" stroke-width="8" fill="none" stroke-linecap="round"/>
  <path d="M230 142 C225 180 224 230 230 285" stroke="#c0392b" stroke-width="8" fill="none" stroke-linecap="round"/>

  <path d="M130 160 C110 190 100 235 95 285 C90 330 95 375 115 395 L135 390 C125 350 125 315 130 280 C135 240 142 200 150 175 Z" fill="#f39c12" opacity="0.95"/>
  <path d="M270 160 C290 190 300 235 305 285 C310 330 305 375 285 395 L265 390 C275 350 275 315 270 280 C265 240 258 200 250 175 Z" fill="#f39c12" opacity="0.95"/>

  <path d="M170 220 C170 265 170 315 175 360" stroke="#f1c40f" stroke-width="10" fill="none" stroke-linecap="round"/>
  <path d="M230 220 C230 265 230 315 225 360" stroke="#f1c40f" stroke-width="10" fill="none" stroke-linecap="round"/>

  <path d="M155 380 C160 415 160 450 155 490" stroke="#2ecc71" stroke-width="12" fill="none" stroke-linecap="round"/>
  <path d="M245 380 C240 415 240 450 245 490" stroke="#2ecc71" stroke-width="12" fill="none" stroke-linecap="round"/>

  <rect x="120" y="135" width="60" height="55" rx="20" fill="#e74c3c" opacity="0.25"/>
  <rect x="220" y="135" width="60" height="55" rx="20" fill="#e74c3c" opacity="0.25"/>

  <text x="90" y="120" font-family="Arial, sans-serif" font-size="14" font-weight="700" fill="#2c3e50">Cabeza</text>
  <text x="140" y="160" font-family="Arial, sans-serif" font-size="14" font-weight="700" fill="#2c3e50">Pectorales</text>
  <text x="80" y="240" font-family="Arial, sans-serif" font-size="14" font-weight="700" fill="#2c3e50">Bíceps</text>
  <text x="295" y="240" font-family="Arial, sans-serif" font-size="14" font-weight="700" fill="#2c3e50">Tríceps</text>
  <text x="155" y="310" font-family="Arial, sans-serif" font-size="14" font-weight="700" fill="#2c3e50">Abdominales</text>
  <text x="155" y="430" font-family="Arial, sans-serif" font-size="14" font-weight="700" fill="#2c3e50">Cuádriceps</text>
</svg>
